<mxfile host="app.diagrams.net" modified="2024-05-09T05:38:13.810Z" agent="Mozilla/5.0 (Macintosh; Intel Mac OS X 10_15_7) AppleWebKit/537.36 (KHTML, like Gecko) Chrome/124.0.0.0 Safari/537.36" etag="L2PfKqRjgJVFDp4mSUFr" version="24.3.1" type="github">
  <diagram id="C5RBs43oDa-KdzZeNtuy" name="Page-1">
    <mxGraphModel dx="2848" dy="731" grid="1" gridSize="10" guides="1" tooltips="1" connect="1" arrows="1" fold="1" page="1" pageScale="1" pageWidth="827" pageHeight="1169" math="0" shadow="0">
      <root>
        <mxCell id="WIyWlLk6GJQsqaUBKTNV-0" />
        <mxCell id="WIyWlLk6GJQsqaUBKTNV-1" parent="WIyWlLk6GJQsqaUBKTNV-0" />
        <mxCell id="WIyWlLk6GJQsqaUBKTNV-2" value="" style="rounded=0;html=1;jettySize=auto;orthogonalLoop=1;fontSize=11;endArrow=block;endFill=0;endSize=8;strokeWidth=1;shadow=0;labelBackgroundColor=none;edgeStyle=orthogonalEdgeStyle;" parent="WIyWlLk6GJQsqaUBKTNV-1" source="WIyWlLk6GJQsqaUBKTNV-3" target="WIyWlLk6GJQsqaUBKTNV-6" edge="1">
          <mxGeometry relative="1" as="geometry" />
        </mxCell>
        <mxCell id="WIyWlLk6GJQsqaUBKTNV-3" value="查询待清洗的任务" style="rounded=1;whiteSpace=wrap;html=1;fontSize=12;glass=0;strokeWidth=1;shadow=0;" parent="WIyWlLk6GJQsqaUBKTNV-1" vertex="1">
          <mxGeometry x="-80" y="80" width="120" height="40" as="geometry" />
        </mxCell>
        <mxCell id="WIyWlLk6GJQsqaUBKTNV-4" value="Yes" style="rounded=0;html=1;jettySize=auto;orthogonalLoop=1;fontSize=11;endArrow=block;endFill=0;endSize=8;strokeWidth=1;shadow=0;labelBackgroundColor=none;edgeStyle=orthogonalEdgeStyle;" parent="WIyWlLk6GJQsqaUBKTNV-1" source="WIyWlLk6GJQsqaUBKTNV-6" target="WIyWlLk6GJQsqaUBKTNV-10" edge="1">
          <mxGeometry y="20" relative="1" as="geometry">
            <mxPoint as="offset" />
          </mxGeometry>
        </mxCell>
        <mxCell id="jGAe0SY2VGK8TSROneUU-2" value="" style="edgeStyle=orthogonalEdgeStyle;rounded=0;orthogonalLoop=1;jettySize=auto;html=1;" parent="WIyWlLk6GJQsqaUBKTNV-1" source="WIyWlLk6GJQsqaUBKTNV-6" edge="1">
          <mxGeometry relative="1" as="geometry">
            <mxPoint x="100" y="200" as="targetPoint" />
          </mxGeometry>
        </mxCell>
        <mxCell id="jGAe0SY2VGK8TSROneUU-3" value="销售" style="edgeLabel;html=1;align=center;verticalAlign=middle;resizable=0;points=[];" parent="jGAe0SY2VGK8TSROneUU-2" vertex="1" connectable="0">
          <mxGeometry x="-0.2286" relative="1" as="geometry">
            <mxPoint as="offset" />
          </mxGeometry>
        </mxCell>
        <mxCell id="WIyWlLk6GJQsqaUBKTNV-6" value="业务类型" style="rhombus;whiteSpace=wrap;html=1;shadow=0;fontFamily=Helvetica;fontSize=12;align=center;strokeWidth=1;spacing=6;spacingTop=-4;" parent="WIyWlLk6GJQsqaUBKTNV-1" vertex="1">
          <mxGeometry x="-70" y="160" width="100" height="80" as="geometry" />
        </mxCell>
        <mxCell id="WIyWlLk6GJQsqaUBKTNV-8" value="No" style="rounded=0;html=1;jettySize=auto;orthogonalLoop=1;fontSize=11;endArrow=block;endFill=0;endSize=8;strokeWidth=1;shadow=0;labelBackgroundColor=none;edgeStyle=orthogonalEdgeStyle;" parent="WIyWlLk6GJQsqaUBKTNV-1" source="WIyWlLk6GJQsqaUBKTNV-10" target="WIyWlLk6GJQsqaUBKTNV-11" edge="1">
          <mxGeometry x="0.3333" y="20" relative="1" as="geometry">
            <mxPoint as="offset" />
          </mxGeometry>
        </mxCell>
        <mxCell id="WIyWlLk6GJQsqaUBKTNV-9" value="Yes" style="edgeStyle=orthogonalEdgeStyle;rounded=0;html=1;jettySize=auto;orthogonalLoop=1;fontSize=11;endArrow=block;endFill=0;endSize=8;strokeWidth=1;shadow=0;labelBackgroundColor=none;" parent="WIyWlLk6GJQsqaUBKTNV-1" source="WIyWlLk6GJQsqaUBKTNV-10" target="WIyWlLk6GJQsqaUBKTNV-12" edge="1">
          <mxGeometry y="10" relative="1" as="geometry">
            <mxPoint as="offset" />
          </mxGeometry>
        </mxCell>
        <mxCell id="WIyWlLk6GJQsqaUBKTNV-10" value="Bulb&lt;br&gt;burned out?" style="rhombus;whiteSpace=wrap;html=1;shadow=0;fontFamily=Helvetica;fontSize=12;align=center;strokeWidth=1;spacing=6;spacingTop=-4;" parent="WIyWlLk6GJQsqaUBKTNV-1" vertex="1">
          <mxGeometry x="-330" y="280" width="100" height="80" as="geometry" />
        </mxCell>
        <mxCell id="WIyWlLk6GJQsqaUBKTNV-11" value="Repair Lamp" style="rounded=1;whiteSpace=wrap;html=1;fontSize=12;glass=0;strokeWidth=1;shadow=0;" parent="WIyWlLk6GJQsqaUBKTNV-1" vertex="1">
          <mxGeometry x="-250" y="530" width="120" height="40" as="geometry" />
        </mxCell>
        <mxCell id="WIyWlLk6GJQsqaUBKTNV-12" value="Replace Bulb" style="rounded=1;whiteSpace=wrap;html=1;fontSize=12;glass=0;strokeWidth=1;shadow=0;" parent="WIyWlLk6GJQsqaUBKTNV-1" vertex="1">
          <mxGeometry x="-190" y="300" width="120" height="40" as="geometry" />
        </mxCell>
        <mxCell id="jGAe0SY2VGK8TSROneUU-6" value="" style="edgeStyle=orthogonalEdgeStyle;rounded=0;orthogonalLoop=1;jettySize=auto;html=1;" parent="WIyWlLk6GJQsqaUBKTNV-1" source="jGAe0SY2VGK8TSROneUU-4" target="jGAe0SY2VGK8TSROneUU-5" edge="1">
          <mxGeometry relative="1" as="geometry" />
        </mxCell>
        <mxCell id="jGAe0SY2VGK8TSROneUU-10" value="修改并数据订正" style="edgeLabel;html=1;align=center;verticalAlign=middle;resizable=0;points=[];" parent="jGAe0SY2VGK8TSROneUU-6" vertex="1" connectable="0">
          <mxGeometry x="-0.3231" y="-4" relative="1" as="geometry">
            <mxPoint as="offset" />
          </mxGeometry>
        </mxCell>
        <mxCell id="jGAe0SY2VGK8TSROneUU-8" value="" style="edgeStyle=orthogonalEdgeStyle;rounded=0;orthogonalLoop=1;jettySize=auto;html=1;" parent="WIyWlLk6GJQsqaUBKTNV-1" source="jGAe0SY2VGK8TSROneUU-4" target="jGAe0SY2VGK8TSROneUU-7" edge="1">
          <mxGeometry relative="1" as="geometry" />
        </mxCell>
        <mxCell id="jGAe0SY2VGK8TSROneUU-9" value="直接数据清洗" style="edgeLabel;html=1;align=center;verticalAlign=middle;resizable=0;points=[];" parent="jGAe0SY2VGK8TSROneUU-8" vertex="1" connectable="0">
          <mxGeometry x="0.0222" relative="1" as="geometry">
            <mxPoint y="4" as="offset" />
          </mxGeometry>
        </mxCell>
        <mxCell id="jGAe0SY2VGK8TSROneUU-4" value="清洗类型" style="rhombus;whiteSpace=wrap;html=1;" parent="WIyWlLk6GJQsqaUBKTNV-1" vertex="1">
          <mxGeometry x="100" y="160" width="80" height="80" as="geometry" />
        </mxCell>
        <mxCell id="jGAe0SY2VGK8TSROneUU-15" value="" style="edgeStyle=orthogonalEdgeStyle;rounded=0;orthogonalLoop=1;jettySize=auto;html=1;" parent="WIyWlLk6GJQsqaUBKTNV-1" source="jGAe0SY2VGK8TSROneUU-5" target="jGAe0SY2VGK8TSROneUU-14" edge="1">
          <mxGeometry relative="1" as="geometry" />
        </mxCell>
        <mxCell id="jGAe0SY2VGK8TSROneUU-5" value="前置校验" style="whiteSpace=wrap;html=1;fillColor=#fff2cc;strokeColor=#d6b656;" parent="WIyWlLk6GJQsqaUBKTNV-1" vertex="1">
          <mxGeometry x="270" y="170" width="120" height="60" as="geometry" />
        </mxCell>
        <mxCell id="jGAe0SY2VGK8TSROneUU-13" value="" style="edgeStyle=orthogonalEdgeStyle;rounded=0;orthogonalLoop=1;jettySize=auto;html=1;" parent="WIyWlLk6GJQsqaUBKTNV-1" source="jGAe0SY2VGK8TSROneUU-7" target="jGAe0SY2VGK8TSROneUU-12" edge="1">
          <mxGeometry relative="1" as="geometry" />
        </mxCell>
        <mxCell id="jGAe0SY2VGK8TSROneUU-7" value="前置检验" style="whiteSpace=wrap;html=1;fillColor=#fff2cc;strokeColor=#d6b656;" parent="WIyWlLk6GJQsqaUBKTNV-1" vertex="1">
          <mxGeometry x="80" y="330" width="120" height="60" as="geometry" />
        </mxCell>
        <mxCell id="jGAe0SY2VGK8TSROneUU-11" value="1、校验对账单的状态（非红冲、作废）&lt;div&gt;2、校验对账单是否绑定了结算单&lt;/div&gt;&lt;div&gt;3、校验是否同步商品=否&lt;/div&gt;" style="text;html=1;align=center;verticalAlign=middle;whiteSpace=wrap;rounded=0;" parent="WIyWlLk6GJQsqaUBKTNV-1" vertex="1">
          <mxGeometry x="200" y="345" width="260" height="30" as="geometry" />
        </mxCell>
        <mxCell id="jGAe0SY2VGK8TSROneUU-20" value="" style="edgeStyle=orthogonalEdgeStyle;rounded=0;orthogonalLoop=1;jettySize=auto;html=1;" parent="WIyWlLk6GJQsqaUBKTNV-1" source="jGAe0SY2VGK8TSROneUU-12" target="jGAe0SY2VGK8TSROneUU-21" edge="1">
          <mxGeometry relative="1" as="geometry">
            <mxPoint x="140" y="550" as="targetPoint" />
          </mxGeometry>
        </mxCell>
        <mxCell id="jGAe0SY2VGK8TSROneUU-12" value="获取申请单、申请单商品" style="whiteSpace=wrap;html=1;fillColor=#d5e8d4;strokeColor=#82b366;" parent="WIyWlLk6GJQsqaUBKTNV-1" vertex="1">
          <mxGeometry x="80" y="450" width="120" height="60" as="geometry" />
        </mxCell>
        <mxCell id="jGAe0SY2VGK8TSROneUU-14" value="获取申请单、申请单商品" style="whiteSpace=wrap;html=1;fillColor=#d5e8d4;strokeColor=#82b366;" parent="WIyWlLk6GJQsqaUBKTNV-1" vertex="1">
          <mxGeometry x="450" y="170" width="120" height="60" as="geometry" />
        </mxCell>
        <mxCell id="jGAe0SY2VGK8TSROneUU-35" value="" style="edgeStyle=orthogonalEdgeStyle;rounded=0;orthogonalLoop=1;jettySize=auto;html=1;" parent="WIyWlLk6GJQsqaUBKTNV-1" source="jGAe0SY2VGK8TSROneUU-21" target="jGAe0SY2VGK8TSROneUU-34" edge="1">
          <mxGeometry relative="1" as="geometry" />
        </mxCell>
        <mxCell id="jGAe0SY2VGK8TSROneUU-21" value="获取商品最新的记账规则信息" style="rounded=0;whiteSpace=wrap;html=1;" parent="WIyWlLk6GJQsqaUBKTNV-1" vertex="1">
          <mxGeometry x="80" y="560" width="120" height="60" as="geometry" />
        </mxCell>
        <mxCell id="jGAe0SY2VGK8TSROneUU-22" value="查询最新的生效的变更记录如果没有&lt;div&gt;&amp;nbsp;则记账规则id=-9&lt;/div&gt;" style="text;html=1;align=center;verticalAlign=middle;whiteSpace=wrap;rounded=0;" parent="WIyWlLk6GJQsqaUBKTNV-1" vertex="1">
          <mxGeometry x="210" y="570" width="270" height="30" as="geometry" />
        </mxCell>
        <mxCell id="jGAe0SY2VGK8TSROneUU-28" value="" style="edgeStyle=orthogonalEdgeStyle;rounded=0;orthogonalLoop=1;jettySize=auto;html=1;" parent="WIyWlLk6GJQsqaUBKTNV-1" source="jGAe0SY2VGK8TSROneUU-25" target="jGAe0SY2VGK8TSROneUU-27" edge="1">
          <mxGeometry relative="1" as="geometry" />
        </mxCell>
        <mxCell id="jGAe0SY2VGK8TSROneUU-29" value="新结算方式=使用" style="edgeLabel;html=1;align=center;verticalAlign=middle;resizable=0;points=[];" parent="jGAe0SY2VGK8TSROneUU-28" vertex="1" connectable="0">
          <mxGeometry x="-0.1" y="-1" relative="1" as="geometry">
            <mxPoint as="offset" />
          </mxGeometry>
        </mxCell>
        <mxCell id="jGAe0SY2VGK8TSROneUU-32" value="" style="edgeStyle=orthogonalEdgeStyle;rounded=0;orthogonalLoop=1;jettySize=auto;html=1;" parent="WIyWlLk6GJQsqaUBKTNV-1" source="jGAe0SY2VGK8TSROneUU-25" target="jGAe0SY2VGK8TSROneUU-31" edge="1">
          <mxGeometry relative="1" as="geometry" />
        </mxCell>
        <mxCell id="jGAe0SY2VGK8TSROneUU-33" value="新结算方式=订单生成或订单" style="edgeLabel;html=1;align=center;verticalAlign=middle;resizable=0;points=[];" parent="jGAe0SY2VGK8TSROneUU-32" vertex="1" connectable="0">
          <mxGeometry x="-0.0222" y="-2" relative="1" as="geometry">
            <mxPoint as="offset" />
          </mxGeometry>
        </mxCell>
        <mxCell id="jGAe0SY2VGK8TSROneUU-100" style="edgeStyle=orthogonalEdgeStyle;rounded=0;orthogonalLoop=1;jettySize=auto;html=1;entryX=0;entryY=0.5;entryDx=0;entryDy=0;" parent="WIyWlLk6GJQsqaUBKTNV-1" source="jGAe0SY2VGK8TSROneUU-25" target="jGAe0SY2VGK8TSROneUU-99" edge="1">
          <mxGeometry relative="1" as="geometry" />
        </mxCell>
        <mxCell id="jGAe0SY2VGK8TSROneUU-101" value="否" style="edgeLabel;html=1;align=center;verticalAlign=middle;resizable=0;points=[];" parent="jGAe0SY2VGK8TSROneUU-100" vertex="1" connectable="0">
          <mxGeometry x="-0.248" y="-3" relative="1" as="geometry">
            <mxPoint y="1" as="offset" />
          </mxGeometry>
        </mxCell>
        <mxCell id="jGAe0SY2VGK8TSROneUU-25" value="判断结算方式是否发生变动" style="rhombus;whiteSpace=wrap;html=1;rounded=0;" parent="WIyWlLk6GJQsqaUBKTNV-1" vertex="1">
          <mxGeometry x="200" y="682.5" width="80" height="80" as="geometry" />
        </mxCell>
        <mxCell id="jGAe0SY2VGK8TSROneUU-57" style="edgeStyle=orthogonalEdgeStyle;rounded=0;orthogonalLoop=1;jettySize=auto;html=1;entryX=1;entryY=0.5;entryDx=0;entryDy=0;" parent="WIyWlLk6GJQsqaUBKTNV-1" source="jGAe0SY2VGK8TSROneUU-27" target="jGAe0SY2VGK8TSROneUU-41" edge="1">
          <mxGeometry relative="1" as="geometry">
            <Array as="points">
              <mxPoint x="540" y="970" />
            </Array>
          </mxGeometry>
        </mxCell>
        <mxCell id="jGAe0SY2VGK8TSROneUU-27" value="组装任务步骤" style="whiteSpace=wrap;html=1;rounded=0;fillColor=#f8cecc;strokeColor=#b85450;" parent="WIyWlLk6GJQsqaUBKTNV-1" vertex="1">
          <mxGeometry x="460" y="692.5" width="120" height="60" as="geometry" />
        </mxCell>
        <mxCell id="jGAe0SY2VGK8TSROneUU-30" value="detail_type=4,business_detail_type=1&amp;nbsp;&lt;div&gt;detail_type=6 business_detail_type=2&lt;/div&gt;&lt;div&gt;detail_type=3,business_detail_type=2&amp;nbsp;&lt;br&gt;&lt;/div&gt;&lt;div&gt;&lt;br&gt;&lt;/div&gt;" style="text;html=1;align=center;verticalAlign=middle;whiteSpace=wrap;rounded=0;" parent="WIyWlLk6GJQsqaUBKTNV-1" vertex="1">
          <mxGeometry x="670" y="720" width="60" height="30" as="geometry" />
        </mxCell>
        <mxCell id="jGAe0SY2VGK8TSROneUU-42" value="" style="edgeStyle=orthogonalEdgeStyle;rounded=0;orthogonalLoop=1;jettySize=auto;html=1;" parent="WIyWlLk6GJQsqaUBKTNV-1" source="jGAe0SY2VGK8TSROneUU-31" target="jGAe0SY2VGK8TSROneUU-41" edge="1">
          <mxGeometry relative="1" as="geometry" />
        </mxCell>
        <mxCell id="jGAe0SY2VGK8TSROneUU-31" value="组装任务步骤" style="whiteSpace=wrap;html=1;rounded=0;fillColor=#f8cecc;strokeColor=#b85450;" parent="WIyWlLk6GJQsqaUBKTNV-1" vertex="1">
          <mxGeometry x="180" y="825" width="120" height="60" as="geometry" />
        </mxCell>
        <mxCell id="jGAe0SY2VGK8TSROneUU-37" value="" style="edgeStyle=orthogonalEdgeStyle;rounded=0;orthogonalLoop=1;jettySize=auto;html=1;entryX=0;entryY=0.5;entryDx=0;entryDy=0;" parent="WIyWlLk6GJQsqaUBKTNV-1" source="jGAe0SY2VGK8TSROneUU-34" target="jGAe0SY2VGK8TSROneUU-25" edge="1">
          <mxGeometry relative="1" as="geometry">
            <mxPoint x="45" y="722.5" as="targetPoint" />
          </mxGeometry>
        </mxCell>
        <mxCell id="jGAe0SY2VGK8TSROneUU-38" value="business_detail_type=11，零售订单、订单生成" style="edgeLabel;html=1;align=center;verticalAlign=middle;resizable=0;points=[];" parent="jGAe0SY2VGK8TSROneUU-37" vertex="1" connectable="0">
          <mxGeometry x="-0.1" y="2" relative="1" as="geometry">
            <mxPoint y="1" as="offset" />
          </mxGeometry>
        </mxCell>
        <mxCell id="jGAe0SY2VGK8TSROneUU-87" value="" style="edgeStyle=orthogonalEdgeStyle;rounded=0;orthogonalLoop=1;jettySize=auto;html=1;" parent="WIyWlLk6GJQsqaUBKTNV-1" source="jGAe0SY2VGK8TSROneUU-34" target="jGAe0SY2VGK8TSROneUU-86" edge="1">
          <mxGeometry relative="1" as="geometry" />
        </mxCell>
        <mxCell id="jGAe0SY2VGK8TSROneUU-88" value="business_detail_type=31，使用结算" style="edgeLabel;html=1;align=center;verticalAlign=middle;resizable=0;points=[];" parent="jGAe0SY2VGK8TSROneUU-87" vertex="1" connectable="0">
          <mxGeometry x="-0.0769" y="-1" relative="1" as="geometry">
            <mxPoint as="offset" />
          </mxGeometry>
        </mxCell>
        <mxCell id="jGAe0SY2VGK8TSROneUU-34" value="判断申请单商品关联的账单类型：business_detail_type" style="rhombus;whiteSpace=wrap;html=1;rounded=0;" parent="WIyWlLk6GJQsqaUBKTNV-1" vertex="1">
          <mxGeometry x="-1060" y="665" width="170" height="115" as="geometry" />
        </mxCell>
        <mxCell id="jGAe0SY2VGK8TSROneUU-40" value="detail_type=4,business_detail_type=1&amp;nbsp;&lt;div&gt;detail_type=6 business_detail_type=1&lt;/div&gt;&lt;div&gt;detail_type=3,business_detail_type=1&amp;nbsp;&lt;br&gt;&lt;/div&gt;&lt;div&gt;&lt;br&gt;&lt;/div&gt;" style="text;html=1;align=center;verticalAlign=middle;whiteSpace=wrap;rounded=0;" parent="WIyWlLk6GJQsqaUBKTNV-1" vertex="1">
          <mxGeometry x="390" y="840" width="60" height="30" as="geometry" />
        </mxCell>
        <mxCell id="jGAe0SY2VGK8TSROneUU-47" value="" style="edgeStyle=orthogonalEdgeStyle;rounded=0;orthogonalLoop=1;jettySize=auto;html=1;" parent="WIyWlLk6GJQsqaUBKTNV-1" source="jGAe0SY2VGK8TSROneUU-41" target="jGAe0SY2VGK8TSROneUU-46" edge="1">
          <mxGeometry relative="1" as="geometry">
            <Array as="points">
              <mxPoint x="240" y="1050" />
              <mxPoint x="210" y="1050" />
            </Array>
          </mxGeometry>
        </mxCell>
        <mxCell id="jGAe0SY2VGK8TSROneUU-48" value="是" style="edgeLabel;html=1;align=center;verticalAlign=middle;resizable=0;points=[];" parent="jGAe0SY2VGK8TSROneUU-47" vertex="1" connectable="0">
          <mxGeometry x="-0.075" y="-2" relative="1" as="geometry">
            <mxPoint as="offset" />
          </mxGeometry>
        </mxCell>
        <mxCell id="jGAe0SY2VGK8TSROneUU-74" value="" style="edgeStyle=orthogonalEdgeStyle;rounded=0;orthogonalLoop=1;jettySize=auto;html=1;" parent="WIyWlLk6GJQsqaUBKTNV-1" source="jGAe0SY2VGK8TSROneUU-41" target="jGAe0SY2VGK8TSROneUU-73" edge="1">
          <mxGeometry relative="1" as="geometry" />
        </mxCell>
        <mxCell id="jGAe0SY2VGK8TSROneUU-75" value="否" style="edgeLabel;html=1;align=center;verticalAlign=middle;resizable=0;points=[];" parent="jGAe0SY2VGK8TSROneUU-74" vertex="1" connectable="0">
          <mxGeometry x="0.5474" relative="1" as="geometry">
            <mxPoint as="offset" />
          </mxGeometry>
        </mxCell>
        <mxCell id="jGAe0SY2VGK8TSROneUU-41" value="判断是否是支付营销的产品" style="rhombus;whiteSpace=wrap;html=1;rounded=0;" parent="WIyWlLk6GJQsqaUBKTNV-1" vertex="1">
          <mxGeometry x="190" y="930" width="100" height="80" as="geometry" />
        </mxCell>
        <mxCell id="jGAe0SY2VGK8TSROneUU-50" value="" style="edgeStyle=orthogonalEdgeStyle;rounded=0;orthogonalLoop=1;jettySize=auto;html=1;" parent="WIyWlLk6GJQsqaUBKTNV-1" source="jGAe0SY2VGK8TSROneUU-46" target="jGAe0SY2VGK8TSROneUU-49" edge="1">
          <mxGeometry relative="1" as="geometry" />
        </mxCell>
        <mxCell id="jGAe0SY2VGK8TSROneUU-51" value="是" style="edgeLabel;html=1;align=center;verticalAlign=middle;resizable=0;points=[];" parent="jGAe0SY2VGK8TSROneUU-50" vertex="1" connectable="0">
          <mxGeometry x="-0.1333" y="2" relative="1" as="geometry">
            <mxPoint as="offset" />
          </mxGeometry>
        </mxCell>
        <mxCell id="jGAe0SY2VGK8TSROneUU-55" value="" style="edgeStyle=orthogonalEdgeStyle;rounded=0;orthogonalLoop=1;jettySize=auto;html=1;" parent="WIyWlLk6GJQsqaUBKTNV-1" source="jGAe0SY2VGK8TSROneUU-46" target="jGAe0SY2VGK8TSROneUU-54" edge="1">
          <mxGeometry relative="1" as="geometry" />
        </mxCell>
        <mxCell id="jGAe0SY2VGK8TSROneUU-56" value="否" style="edgeLabel;html=1;align=center;verticalAlign=middle;resizable=0;points=[];" parent="jGAe0SY2VGK8TSROneUU-55" vertex="1" connectable="0">
          <mxGeometry x="-0.2222" relative="1" as="geometry">
            <mxPoint as="offset" />
          </mxGeometry>
        </mxCell>
        <mxCell id="jGAe0SY2VGK8TSROneUU-46" value="支付营销的批次号是否为空" style="rhombus;whiteSpace=wrap;html=1;rounded=0;" parent="WIyWlLk6GJQsqaUBKTNV-1" vertex="1">
          <mxGeometry x="140" y="1090" width="140" height="80" as="geometry" />
        </mxCell>
        <mxCell id="jGAe0SY2VGK8TSROneUU-53" value="" style="edgeStyle=orthogonalEdgeStyle;rounded=0;orthogonalLoop=1;jettySize=auto;html=1;" parent="WIyWlLk6GJQsqaUBKTNV-1" source="jGAe0SY2VGK8TSROneUU-49" target="jGAe0SY2VGK8TSROneUU-52" edge="1">
          <mxGeometry relative="1" as="geometry" />
        </mxCell>
        <mxCell id="jGAe0SY2VGK8TSROneUU-49" value="返回错误信息" style="whiteSpace=wrap;html=1;rounded=0;" parent="WIyWlLk6GJQsqaUBKTNV-1" vertex="1">
          <mxGeometry x="340" y="1100" width="120" height="60" as="geometry" />
        </mxCell>
        <mxCell id="jGAe0SY2VGK8TSROneUU-52" value="结束" style="ellipse;whiteSpace=wrap;html=1;rounded=0;" parent="WIyWlLk6GJQsqaUBKTNV-1" vertex="1">
          <mxGeometry x="560" y="1090" width="80" height="80" as="geometry" />
        </mxCell>
        <mxCell id="jGAe0SY2VGK8TSROneUU-61" value="" style="edgeStyle=orthogonalEdgeStyle;rounded=0;orthogonalLoop=1;jettySize=auto;html=1;" parent="WIyWlLk6GJQsqaUBKTNV-1" source="jGAe0SY2VGK8TSROneUU-54" target="jGAe0SY2VGK8TSROneUU-60" edge="1">
          <mxGeometry relative="1" as="geometry" />
        </mxCell>
        <mxCell id="jGAe0SY2VGK8TSROneUU-54" value="获取支付营销的活动、批次信息" style="whiteSpace=wrap;html=1;rounded=0;" parent="WIyWlLk6GJQsqaUBKTNV-1" vertex="1">
          <mxGeometry x="150" y="1240" width="120" height="60" as="geometry" />
        </mxCell>
        <mxCell id="jGAe0SY2VGK8TSROneUU-59" style="edgeStyle=orthogonalEdgeStyle;rounded=0;orthogonalLoop=1;jettySize=auto;html=1;exitX=0.5;exitY=1;exitDx=0;exitDy=0;" parent="WIyWlLk6GJQsqaUBKTNV-1" source="jGAe0SY2VGK8TSROneUU-54" target="jGAe0SY2VGK8TSROneUU-54" edge="1">
          <mxGeometry relative="1" as="geometry" />
        </mxCell>
        <mxCell id="jGAe0SY2VGK8TSROneUU-63" value="" style="edgeStyle=orthogonalEdgeStyle;rounded=0;orthogonalLoop=1;jettySize=auto;html=1;" parent="WIyWlLk6GJQsqaUBKTNV-1" source="jGAe0SY2VGK8TSROneUU-60" target="jGAe0SY2VGK8TSROneUU-62" edge="1">
          <mxGeometry relative="1" as="geometry" />
        </mxCell>
        <mxCell id="jGAe0SY2VGK8TSROneUU-64" value="线上" style="edgeLabel;html=1;align=center;verticalAlign=middle;resizable=0;points=[];" parent="jGAe0SY2VGK8TSROneUU-63" vertex="1" connectable="0">
          <mxGeometry x="-0.3" y="2" relative="1" as="geometry">
            <mxPoint as="offset" />
          </mxGeometry>
        </mxCell>
        <mxCell id="2OsWfhqXqFlylCH4l19Q-3" value="" style="edgeStyle=orthogonalEdgeStyle;rounded=0;orthogonalLoop=1;jettySize=auto;html=1;" edge="1" parent="WIyWlLk6GJQsqaUBKTNV-1" source="jGAe0SY2VGK8TSROneUU-60" target="2OsWfhqXqFlylCH4l19Q-2">
          <mxGeometry relative="1" as="geometry" />
        </mxCell>
        <mxCell id="jGAe0SY2VGK8TSROneUU-60" value="判断活动类型" style="rhombus;whiteSpace=wrap;html=1;rounded=0;" parent="WIyWlLk6GJQsqaUBKTNV-1" vertex="1">
          <mxGeometry x="170" y="1370" width="80" height="80" as="geometry" />
        </mxCell>
        <mxCell id="jGAe0SY2VGK8TSROneUU-62" value="组装任务" style="whiteSpace=wrap;html=1;rounded=0;fillColor=#f8cecc;strokeColor=#b85450;" parent="WIyWlLk6GJQsqaUBKTNV-1" vertex="1">
          <mxGeometry x="360" y="1380" width="120" height="60" as="geometry" />
        </mxCell>
        <mxCell id="jGAe0SY2VGK8TSROneUU-65" value="detail_type=4,business_detail_type=4&amp;nbsp;&lt;span style=&quot;background-color: initial;&quot;&gt;&amp;nbsp;&lt;/span&gt;&lt;div&gt;&lt;br&gt;&lt;/div&gt;" style="text;html=1;align=center;verticalAlign=middle;whiteSpace=wrap;rounded=0;" parent="WIyWlLk6GJQsqaUBKTNV-1" vertex="1">
          <mxGeometry x="570" y="1400" width="60" height="30" as="geometry" />
        </mxCell>
        <mxCell id="jGAe0SY2VGK8TSROneUU-85" style="edgeStyle=orthogonalEdgeStyle;rounded=0;orthogonalLoop=1;jettySize=auto;html=1;entryX=0.5;entryY=1;entryDx=0;entryDy=0;" parent="WIyWlLk6GJQsqaUBKTNV-1" source="jGAe0SY2VGK8TSROneUU-66" target="jGAe0SY2VGK8TSROneUU-73" edge="1">
          <mxGeometry relative="1" as="geometry" />
        </mxCell>
        <mxCell id="jGAe0SY2VGK8TSROneUU-66" value="组装任务" style="whiteSpace=wrap;html=1;rounded=0;fillColor=#f8cecc;strokeColor=#b85450;" parent="WIyWlLk6GJQsqaUBKTNV-1" vertex="1">
          <mxGeometry x="160" y="1650" width="120" height="60" as="geometry" />
        </mxCell>
        <mxCell id="jGAe0SY2VGK8TSROneUU-69" value="detail_type=6,business_detail_type=4&amp;nbsp;&lt;span style=&quot;background-color: initial;&quot;&gt;&amp;nbsp;&lt;/span&gt;&lt;div&gt;&lt;br&gt;&lt;/div&gt;" style="text;html=1;align=center;verticalAlign=middle;whiteSpace=wrap;rounded=0;" parent="WIyWlLk6GJQsqaUBKTNV-1" vertex="1">
          <mxGeometry x="360" y="1665" width="60" height="30" as="geometry" />
        </mxCell>
        <mxCell id="jGAe0SY2VGK8TSROneUU-77" value="" style="edgeStyle=orthogonalEdgeStyle;rounded=0;orthogonalLoop=1;jettySize=auto;html=1;" parent="WIyWlLk6GJQsqaUBKTNV-1" source="jGAe0SY2VGK8TSROneUU-73" target="jGAe0SY2VGK8TSROneUU-76" edge="1">
          <mxGeometry relative="1" as="geometry" />
        </mxCell>
        <mxCell id="jGAe0SY2VGK8TSROneUU-78" value="是" style="edgeLabel;html=1;align=center;verticalAlign=middle;resizable=0;points=[];" parent="jGAe0SY2VGK8TSROneUU-77" vertex="1" connectable="0">
          <mxGeometry x="-0.2222" y="2" relative="1" as="geometry">
            <mxPoint as="offset" />
          </mxGeometry>
        </mxCell>
        <mxCell id="jGAe0SY2VGK8TSROneUU-73" value="判断是否需要清洗用户支付" style="rhombus;whiteSpace=wrap;html=1;rounded=0;" parent="WIyWlLk6GJQsqaUBKTNV-1" vertex="1">
          <mxGeometry y="930" width="100" height="80" as="geometry" />
        </mxCell>
        <mxCell id="jGAe0SY2VGK8TSROneUU-80" value="" style="edgeStyle=orthogonalEdgeStyle;rounded=0;orthogonalLoop=1;jettySize=auto;html=1;" parent="WIyWlLk6GJQsqaUBKTNV-1" source="jGAe0SY2VGK8TSROneUU-76" target="jGAe0SY2VGK8TSROneUU-79" edge="1">
          <mxGeometry relative="1" as="geometry" />
        </mxCell>
        <mxCell id="jGAe0SY2VGK8TSROneUU-76" value="组装任务：清洗用户支付" style="whiteSpace=wrap;html=1;rounded=0;fillColor=#f8cecc;strokeColor=#b85450;" parent="WIyWlLk6GJQsqaUBKTNV-1" vertex="1">
          <mxGeometry x="-140" y="1040" width="120" height="60" as="geometry" />
        </mxCell>
        <mxCell id="jGAe0SY2VGK8TSROneUU-83" value="" style="edgeStyle=orthogonalEdgeStyle;rounded=0;orthogonalLoop=1;jettySize=auto;html=1;" parent="WIyWlLk6GJQsqaUBKTNV-1" source="jGAe0SY2VGK8TSROneUU-79" target="jGAe0SY2VGK8TSROneUU-82" edge="1">
          <mxGeometry relative="1" as="geometry" />
        </mxCell>
        <mxCell id="jGAe0SY2VGK8TSROneUU-79" value="添加任务通用任务" style="whiteSpace=wrap;html=1;fillColor=#f8cecc;strokeColor=#b85450;rounded=0;" parent="WIyWlLk6GJQsqaUBKTNV-1" vertex="1">
          <mxGeometry x="-140" y="1180" width="120" height="60" as="geometry" />
        </mxCell>
        <mxCell id="jGAe0SY2VGK8TSROneUU-81" value="1、查询申请单商品对应的账单信息，插入明细&lt;br&gt;5、解绑对账单或红冲对账单" style="text;html=1;align=center;verticalAlign=middle;whiteSpace=wrap;rounded=0;" parent="WIyWlLk6GJQsqaUBKTNV-1" vertex="1">
          <mxGeometry x="-320" y="1195" width="170" height="30" as="geometry" />
        </mxCell>
        <mxCell id="jGAe0SY2VGK8TSROneUU-110" value="" style="edgeStyle=orthogonalEdgeStyle;rounded=0;orthogonalLoop=1;jettySize=auto;html=1;" parent="WIyWlLk6GJQsqaUBKTNV-1" source="jGAe0SY2VGK8TSROneUU-82" target="jGAe0SY2VGK8TSROneUU-109" edge="1">
          <mxGeometry relative="1" as="geometry" />
        </mxCell>
        <mxCell id="jGAe0SY2VGK8TSROneUU-82" value="任务插入数据库：状态：初始" style="whiteSpace=wrap;html=1;rounded=0;" parent="WIyWlLk6GJQsqaUBKTNV-1" vertex="1">
          <mxGeometry x="-140" y="1290" width="120" height="60" as="geometry" />
        </mxCell>
        <mxCell id="jGAe0SY2VGK8TSROneUU-90" value="" style="edgeStyle=orthogonalEdgeStyle;rounded=0;orthogonalLoop=1;jettySize=auto;html=1;" parent="WIyWlLk6GJQsqaUBKTNV-1" source="jGAe0SY2VGK8TSROneUU-86" target="jGAe0SY2VGK8TSROneUU-89" edge="1">
          <mxGeometry relative="1" as="geometry" />
        </mxCell>
        <mxCell id="jGAe0SY2VGK8TSROneUU-91" value="新结算方式=订单、订单生成" style="edgeLabel;html=1;align=center;verticalAlign=middle;resizable=0;points=[];" parent="jGAe0SY2VGK8TSROneUU-90" vertex="1" connectable="0">
          <mxGeometry x="0.0545" y="-2" relative="1" as="geometry">
            <mxPoint x="1" as="offset" />
          </mxGeometry>
        </mxCell>
        <mxCell id="jGAe0SY2VGK8TSROneUU-104" value="" style="edgeStyle=orthogonalEdgeStyle;rounded=0;orthogonalLoop=1;jettySize=auto;html=1;" parent="WIyWlLk6GJQsqaUBKTNV-1" source="jGAe0SY2VGK8TSROneUU-86" target="jGAe0SY2VGK8TSROneUU-103" edge="1">
          <mxGeometry relative="1" as="geometry" />
        </mxCell>
        <mxCell id="jGAe0SY2VGK8TSROneUU-105" value="未发生变动" style="edgeLabel;html=1;align=center;verticalAlign=middle;resizable=0;points=[];" parent="jGAe0SY2VGK8TSROneUU-104" vertex="1" connectable="0">
          <mxGeometry x="-0.5111" y="-4" relative="1" as="geometry">
            <mxPoint as="offset" />
          </mxGeometry>
        </mxCell>
        <mxCell id="jGAe0SY2VGK8TSROneUU-86" value="判断结算方式是否发生变动" style="rhombus;whiteSpace=wrap;html=1;rounded=0;" parent="WIyWlLk6GJQsqaUBKTNV-1" vertex="1">
          <mxGeometry x="-1017.5" y="885" width="85" height="80" as="geometry" />
        </mxCell>
        <mxCell id="jGAe0SY2VGK8TSROneUU-112" style="edgeStyle=orthogonalEdgeStyle;rounded=0;orthogonalLoop=1;jettySize=auto;html=1;" parent="WIyWlLk6GJQsqaUBKTNV-1" source="jGAe0SY2VGK8TSROneUU-89" target="jGAe0SY2VGK8TSROneUU-111" edge="1">
          <mxGeometry relative="1" as="geometry" />
        </mxCell>
        <mxCell id="jGAe0SY2VGK8TSROneUU-89" value="组装任务" style="whiteSpace=wrap;html=1;rounded=0;fillColor=#f8cecc;strokeColor=#b85450;" parent="WIyWlLk6GJQsqaUBKTNV-1" vertex="1">
          <mxGeometry x="-750" y="895" width="120" height="60" as="geometry" />
        </mxCell>
        <mxCell id="jGAe0SY2VGK8TSROneUU-99" value="组装任务" style="rounded=0;whiteSpace=wrap;html=1;fillColor=#f8cecc;strokeColor=#b85450;" parent="WIyWlLk6GJQsqaUBKTNV-1" vertex="1">
          <mxGeometry x="260" y="620" width="120" height="60" as="geometry" />
        </mxCell>
        <mxCell id="jGAe0SY2VGK8TSROneUU-102" value="detail_type=4,business_detail_type=1&amp;nbsp;&lt;div&gt;detail_type=6 business_detail_type=1&lt;/div&gt;&lt;div&gt;detail_type=3,business_detail_type=1&amp;nbsp;&lt;br&gt;&lt;/div&gt;&lt;div&gt;&lt;br&gt;&lt;/div&gt;" style="text;html=1;align=center;verticalAlign=middle;whiteSpace=wrap;rounded=0;" parent="WIyWlLk6GJQsqaUBKTNV-1" vertex="1">
          <mxGeometry x="470" y="640" width="60" height="30" as="geometry" />
        </mxCell>
        <mxCell id="jGAe0SY2VGK8TSROneUU-113" style="edgeStyle=orthogonalEdgeStyle;rounded=0;orthogonalLoop=1;jettySize=auto;html=1;entryX=0;entryY=0.75;entryDx=0;entryDy=0;" parent="WIyWlLk6GJQsqaUBKTNV-1" source="jGAe0SY2VGK8TSROneUU-103" target="jGAe0SY2VGK8TSROneUU-111" edge="1">
          <mxGeometry relative="1" as="geometry" />
        </mxCell>
        <mxCell id="jGAe0SY2VGK8TSROneUU-103" value="组装任务" style="whiteSpace=wrap;html=1;rounded=0;fillColor=#f8cecc;strokeColor=#b85450;" parent="WIyWlLk6GJQsqaUBKTNV-1" vertex="1">
          <mxGeometry x="-1035" y="1055" width="120" height="60" as="geometry" />
        </mxCell>
        <mxCell id="jGAe0SY2VGK8TSROneUU-106" value="detail_type=4,business_detail_type=2&amp;nbsp;&lt;div&gt;detail_type=6 business_detail_type=2&lt;/div&gt;&lt;div&gt;detail_type=3,business_detail_type=2&amp;nbsp;&lt;br&gt;&lt;/div&gt;&lt;div&gt;&lt;br&gt;&lt;/div&gt;" style="text;html=1;align=center;verticalAlign=middle;whiteSpace=wrap;rounded=0;" parent="WIyWlLk6GJQsqaUBKTNV-1" vertex="1">
          <mxGeometry x="-830" y="1080" width="60" height="30" as="geometry" />
        </mxCell>
        <mxCell id="jGAe0SY2VGK8TSROneUU-107" value="detail_type=4,business_detail_type=2&amp;nbsp;&lt;div&gt;detail_type=2 business_detail_type=2&lt;/div&gt;&lt;div&gt;detail_type=3,business_detail_type=1&amp;nbsp;&lt;br&gt;&lt;/div&gt;&lt;div&gt;&lt;br&gt;&lt;/div&gt;" style="text;html=1;align=center;verticalAlign=middle;whiteSpace=wrap;rounded=0;" parent="WIyWlLk6GJQsqaUBKTNV-1" vertex="1">
          <mxGeometry x="-550" y="920" width="60" height="30" as="geometry" />
        </mxCell>
        <mxCell id="jGAe0SY2VGK8TSROneUU-109" value="结束" style="ellipse;whiteSpace=wrap;html=1;rounded=0;" parent="WIyWlLk6GJQsqaUBKTNV-1" vertex="1">
          <mxGeometry x="-120" y="1420" width="80" height="80" as="geometry" />
        </mxCell>
        <mxCell id="jGAe0SY2VGK8TSROneUU-111" value="支付营销商品的处理逻辑" style="rounded=1;whiteSpace=wrap;html=1;" parent="WIyWlLk6GJQsqaUBKTNV-1" vertex="1">
          <mxGeometry x="-630" y="1070" width="120" height="60" as="geometry" />
        </mxCell>
        <mxCell id="2OsWfhqXqFlylCH4l19Q-2" value="线上支付营销的商品是否存在" style="rhombus;whiteSpace=wrap;html=1;rounded=0;" vertex="1" parent="WIyWlLk6GJQsqaUBKTNV-1">
          <mxGeometry x="170" y="1490" width="80" height="80" as="geometry" />
        </mxCell>
        <mxCell id="2OsWfhqXqFlylCH4l19Q-4" style="edgeStyle=orthogonalEdgeStyle;rounded=0;orthogonalLoop=1;jettySize=auto;html=1;entryX=0.417;entryY=0.167;entryDx=0;entryDy=0;entryPerimeter=0;" edge="1" parent="WIyWlLk6GJQsqaUBKTNV-1" source="2OsWfhqXqFlylCH4l19Q-2" target="jGAe0SY2VGK8TSROneUU-66">
          <mxGeometry relative="1" as="geometry" />
        </mxCell>
        <mxCell id="2OsWfhqXqFlylCH4l19Q-6" value="否" style="edgeLabel;html=1;align=center;verticalAlign=middle;resizable=0;points=[];" vertex="1" connectable="0" parent="2OsWfhqXqFlylCH4l19Q-4">
          <mxGeometry x="0.2001" y="1" relative="1" as="geometry">
            <mxPoint as="offset" />
          </mxGeometry>
        </mxCell>
      </root>
    </mxGraphModel>
  </diagram>
</mxfile>
